<?xml version="1.0" encoding="UTF-8" standalone="no"?>
<!-- Created with Inkscape (http://www.inkscape.org/) -->

<svg
   width="512"
   height="512"
   viewBox="0 0 512 512"
   version="1.1"
   id="svg1"
   xml:space="preserve"
   inkscape:version="1.4.3 (0d15f75, 2025-12-25)"
   sodipodi:docname="BliPod.svg"
   inkscape:export-filename="macos/app-icon.png"
   inkscape:export-xdpi="192"
   inkscape:export-ydpi="192"
   xmlns:inkscape="http://www.inkscape.org/namespaces/inkscape"
   xmlns:sodipodi="http://sodipodi.sourceforge.net/DTD/sodipodi-0.dtd"
   xmlns="http://www.w3.org/2000/svg"
   xmlns:svg="http://www.w3.org/2000/svg"><sodipodi:namedview
     id="namedview1"
     pagecolor="#ffffff"
     bordercolor="#000000"
     borderopacity="0.25"
     inkscape:showpageshadow="2"
     inkscape:pageopacity="0.0"
     inkscape:pagecheckerboard="0"
     inkscape:deskcolor="#d1d1d1"
     inkscape:document-units="px"
     inkscape:zoom="0.770866"
     inkscape:cx="109.61698"
     inkscape:cy="289.28504"
     inkscape:window-width="1242"
     inkscape:window-height="757"
     inkscape:window-x="0"
     inkscape:window-y="38"
     inkscape:window-maximized="0"
     inkscape:current-layer="layer1"
     inkscape:export-bgcolor="#f6f5f200" /><defs
     id="defs1"><clipPath
       id="SVGXv8lpc2Y"><path
         fill="#fff"
         d="M0 0h24v24H0z"
         id="path10" /></clipPath><clipPath
       clipPathUnits="userSpaceOnUse"
       id="clipPath60"><path
         id="path61"
         style="fill:#ff0000;fill-opacity:1;fill-rule:nonzero;stroke:none;stroke-width:0.113474"
         d="m 13.191159,13.196018 v 2.281855 c 0.162408,-0.153726 0.324863,-0.307424 0.487605,-0.460879 v -1.820976 z" /></clipPath><clipPath
       clipPathUnits="userSpaceOnUse"
       id="clipPath124"><path
         id="path125"
         style="fill:#ff0000;fill-opacity:1;fill-rule:nonzero;stroke:none;stroke-width:0.113474"
         d="m 9.6079266,10.565134 v 8.608825 h 6.6961164 v -8.608825 z m 1.5852414,2.236778 c 0.143571,-9.71e-4 0.316334,0.06883 0.481309,0.238865 0.02327,0.02399 0.04716,0.04775 0.06972,0.07225 -0.03767,-0.02399 -0.019,-0.01262 0.02705,0.02149 0.03282,0.01837 0.07018,0.04393 0.08558,0.05371 0.0501,0.03947 0.101357,0.06747 0.157638,0.104689 0.176418,0.140829 -0.07886,-0.06219 0.07369,0.06066 0.0056,0.0042 0.011,0.0081 0.01516,0.01032 0.03848,0.02805 0.06324,0.04654 0.07835,0.05814 0.0053,0.0032 0.01153,0.007 0.01889,0.01159 0.08393,0.04476 0.164285,0.09476 0.244852,0.144288 0.08322,0.06339 0.153495,0.13398 0.227596,0.204741 0.04869,0.0465 0.0888,0.09261 0.12126,0.137758 0.103058,-0.0053 0.235914,0.02931 0.415781,0.09352 0.05624,0.02008 0.08825,0.09399 0.107736,0.170828 0.07019,0.05311 0.137152,0.110088 0.201011,0.169776 0.0046,-2.15e-4 0.0091,-4.31e-4 0.01376,-6.47e-4 0.08667,-0.0028 0.174463,0.01416 0.26514,0.05182 0.115788,0.05257 0.1955,0.143754 0.249282,0.247502 0.01421,-0.0083 0.02771,-0.01291 0.04128,-0.01369 0.0017,-10e-5 0.0034,-2.9e-5 0.0051,0 0.05594,9.71e-4 0.115214,0.06841 0.235523,0.225595 0.03182,-0.0095 0.06301,-0.01521 0.09281,-0.01622 0.09604,-0.0033 0.189484,0.02879 0.284262,0.04318 0.07009,0.08326 0.163103,0.154022 0.210105,0.249607 0.06623,0.134675 -0.03097,0.288971 -0.110066,0.406745 0.0032,0.0013 0.0063,0.0025 0.0096,0.0038 0.04201,0.03239 0.09059,0.05878 0.125923,0.09711 0.116139,0.126123 0.136405,0.297913 0.09094,0.45119 -0.04243,0.11793 -0.10512,0.228183 -0.211039,0.310481 -0.08559,0.07202 -0.171526,0.145274 -0.272368,0.199898 -0.135292,0.05979 -0.275304,0.09355 -0.426276,0.06677 -0.06823,-0.01069 -0.133997,-0.0279 -0.195181,-0.05498 -0.142171,0.166568 -0.284856,0.332834 -0.432338,0.495634 -0.101019,0.115252 -0.200027,0.235507 -0.310147,0.343973 -0.0174,0.01714 -0.03254,0.04637 -0.04967,0.06825 2.39e-4,0.004 5.97e-4,0.0082 9.55e-4,0.01222 h -2.39e-4 c 0.046,0.524 -0.378715,0.667854 -0.631251,0.430335 -0.04265,0.01958 -0.08597,0.03814 -0.129888,0.05561 -0.180132,0.06961 -0.355817,0.16588 -0.557329,0.06972 -0.08993,-0.06658 -0.127458,-0.07963 -0.177926,-0.141128 0.0099,0.0045 0.01545,0.0066 0.01726,0.0067 h 2.39e-4 2.38e-4 v -2.15e-4 h 2.39e-4 v -2.16e-4 h -2.39e-4 v -2.16e-4 -2.15e-4 l -2.38e-4,-2.16e-4 c -0.0025,-0.0029 -0.01378,-0.01057 -0.02915,-0.02106 -0.158222,0.114353 -0.322179,0.221769 -0.496699,0.315327 -0.14885,-0.0062 -0.333963,0.06961 -0.446563,-0.01853 -0.09695,-0.0759 -0.150763,-0.149506 -0.173962,-0.220751 -0.12891,-0.08073 -0.193823,-0.274679 -0.106337,-0.56388 0.0051,-0.01701 0.01083,-0.03378 0.01702,-0.05034 C 10.26873,17.34377 10.14243,17.170789 10.14243,16.884897 v -0.352821 -0.42191 -0.457088 -0.559247 c 1.19e-4,-0.14129 -0.0051,-0.282009 0.01166,-0.422543 0.01991,-0.108891 0.05831,-0.213616 0.08791,-0.320382 0.05656,-0.187336 0.116661,-0.373835 0.179792,-0.559457 0.04464,-0.15003 0.104467,-0.295876 0.1658,-0.440868 0.06712,-0.127151 0.152461,-0.231987 0.278664,-0.286048 0.02195,-0.156615 0.152971,-0.261547 0.326937,-0.262667 z m 1.890256,2.76485 c -0.05361,0.05514 -0.106831,0.11059 -0.1651,0.161771 -0.0212,0.02052 -0.03565,0.03536 -0.04524,0.04508 -3.58e-4,0.0019 -5.97e-4,0.0038 -9.55e-4,0.0057 0.0075,-0.0069 0.01491,-0.01373 0.02239,-0.02064 0.06695,-0.06336 0.133846,-0.126846 0.200777,-0.190208 -0.0039,-5.39e-4 -0.0079,-0.0011 -0.01189,-0.0017 z m 0.916446,0.986213 c -0.0011,4.9e-5 -0.0028,2.16e-4 -0.0054,4.32e-4 -8.36e-4,3.23e-4 -0.0019,6.47e-4 -0.0028,0.0011 0.0046,-6.47e-4 0.0071,-0.0012 0.0082,-0.0015 z m -2.724852,1.520605 c -0.008,0.01031 -0.01609,0.02082 -0.02402,0.03117 -4.77e-4,6.47e-4 -7.16e-4,0.0011 -9.55e-4,0.0015 v 2.15e-4 h -2.38e-4 v 2.16e-4 2.16e-4 h 2.38e-4 2.39e-4 c 0.0042,-0.002 0.02679,-0.02318 0.02472,-0.03328 z" /></clipPath><clipPath
       clipPathUnits="userSpaceOnUse"
       id="clipPath133"><path
         id="path134"
         style="fill:#ff0000;fill-opacity:1;fill-rule:nonzero;stroke:none;stroke-width:0.113474"
         d="m 1.9568881,10.565134 v 8.608825 H 22.045004 v -8.608825 z m 9.2362799,2.236778 c 0.143571,-9.71e-4 0.316334,0.06883 0.481309,0.238865 0.02327,0.02399 0.04716,0.04775 0.06972,0.07225 -0.03767,-0.02399 -0.019,-0.01262 0.02705,0.02149 0.03282,0.01837 0.07018,0.04393 0.08558,0.05371 0.0501,0.03947 0.101357,0.06747 0.157638,0.104689 0.176418,0.140829 -0.07886,-0.06219 0.07369,0.06066 0.0056,0.0042 0.011,0.0081 0.01516,0.01032 0.03848,0.02805 0.06324,0.04654 0.07835,0.05814 0.0053,0.0032 0.01153,0.007 0.01889,0.01159 0.08393,0.04476 0.164285,0.09476 0.244852,0.144288 0.08322,0.06339 0.153495,0.13398 0.227596,0.204741 0.04869,0.0465 0.0888,0.09261 0.12126,0.137758 0.103058,-0.0053 0.235914,0.02931 0.415781,0.09352 0.05624,0.02008 0.08825,0.09399 0.107736,0.170828 0.07019,0.05311 0.137152,0.110088 0.201011,0.169776 0.0046,-2.15e-4 0.0091,-4.31e-4 0.01376,-6.47e-4 0.08667,-0.0028 0.174463,0.01416 0.26514,0.05182 0.115788,0.05257 0.1955,0.143754 0.249282,0.247502 0.01421,-0.0083 0.02771,-0.01291 0.04128,-0.01369 0.0017,-10e-5 0.0034,-2.9e-5 0.0051,0 0.05594,9.71e-4 0.115214,0.06841 0.235523,0.225595 0.03182,-0.0095 0.06301,-0.01521 0.09281,-0.01622 0.09604,-0.0033 0.189484,0.02879 0.284262,0.04318 0.07009,0.08326 0.163103,0.154022 0.210105,0.249607 0.06623,0.134675 -0.03097,0.288971 -0.110066,0.406745 0.0032,0.0013 0.0063,0.0025 0.0096,0.0038 0.04201,0.03239 0.09059,0.05878 0.125923,0.09711 0.116139,0.126123 0.136405,0.297913 0.09094,0.45119 -0.04243,0.11793 -0.10512,0.228183 -0.211039,0.310481 -0.08559,0.07202 -0.171526,0.145274 -0.272368,0.199898 -0.135292,0.05979 -0.275304,0.09355 -0.426276,0.06677 -0.06823,-0.01069 -0.133997,-0.0279 -0.195181,-0.05498 -0.142171,0.166568 -0.284856,0.332834 -0.432338,0.495634 -0.101019,0.115252 -0.200027,0.235507 -0.310147,0.343973 -0.0174,0.01714 -0.03254,0.04637 -0.04967,0.06825 2.39e-4,0.004 5.97e-4,0.0082 9.55e-4,0.01222 h -2.39e-4 c 0.046,0.524 -0.378715,0.667854 -0.631251,0.430335 -0.04265,0.01958 -0.08597,0.03814 -0.129888,0.05561 -0.180132,0.06961 -0.355817,0.16588 -0.557329,0.06972 -0.08993,-0.06658 -0.127458,-0.07963 -0.177926,-0.141128 0.0099,0.0045 0.01545,0.0066 0.01726,0.0067 h 2.39e-4 2.38e-4 v -2.15e-4 h 2.39e-4 v -2.16e-4 h -2.39e-4 v -2.16e-4 -2.15e-4 l -2.38e-4,-2.16e-4 c -0.0025,-0.0029 -0.01378,-0.01057 -0.02915,-0.02106 -0.158222,0.114353 -0.322179,0.221769 -0.496699,0.315327 -0.14885,-0.0062 -0.333963,0.06961 -0.446563,-0.01853 -0.09695,-0.0759 -0.150763,-0.149506 -0.173962,-0.220751 -0.12891,-0.08073 -0.193823,-0.274679 -0.106337,-0.56388 0.0051,-0.01701 0.01083,-0.03378 0.01702,-0.05034 C 10.26873,17.34377 10.14243,17.170789 10.14243,16.884897 v -0.352821 -0.42191 -0.457088 -0.559247 c 1.19e-4,-0.14129 -0.0051,-0.282009 0.01166,-0.422543 0.01991,-0.108891 0.05831,-0.213616 0.08791,-0.320382 0.05656,-0.187336 0.116661,-0.373835 0.179792,-0.559457 0.04464,-0.15003 0.104467,-0.295876 0.1658,-0.440868 0.06712,-0.127151 0.152461,-0.231987 0.278664,-0.286048 0.02195,-0.156615 0.152971,-0.261547 0.326937,-0.262667 z m 1.890256,2.76485 c -0.05361,0.05514 -0.106831,0.11059 -0.1651,0.161771 -0.0212,0.02052 -0.03565,0.03536 -0.04524,0.04508 -3.58e-4,0.0019 -5.97e-4,0.0038 -9.55e-4,0.0057 0.0075,-0.0069 0.01491,-0.01373 0.02239,-0.02064 0.06695,-0.06336 0.133846,-0.126846 0.200777,-0.190208 -0.0039,-5.39e-4 -0.0079,-0.0011 -0.01189,-0.0017 z m 0.916446,0.986213 c -0.0011,4.9e-5 -0.0028,2.16e-4 -0.0054,4.32e-4 -8.36e-4,3.23e-4 -0.0019,6.47e-4 -0.0028,0.0011 0.0046,-6.47e-4 0.0071,-0.0012 0.0082,-0.0015 z m -2.724852,1.520605 c -0.008,0.01031 -0.01609,0.02082 -0.02402,0.03117 -4.77e-4,6.47e-4 -7.16e-4,0.0011 -9.55e-4,0.0015 v 2.15e-4 h -2.38e-4 v 2.16e-4 2.16e-4 h 2.38e-4 2.39e-4 c 0.0042,-0.002 0.02679,-0.02318 0.02472,-0.03328 z" /></clipPath><clipPath
       clipPathUnits="userSpaceOnUse"
       id="clipPath136"><path
         id="path137"
         style="fill:#ff0000;fill-opacity:1;fill-rule:nonzero;stroke:none;stroke-width:0.264583"
         d="m 96.647331,130.68298 v 35.52755 h 24.319449 v -35.52755 z m 9.853149,10.74508 c 0.31816,-0.002 0.70101,0.16886 1.0666,0.58601 0.0516,0.0589 0.10451,0.11715 0.15451,0.17725 -0.0835,-0.0588 -0.0421,-0.0309 0.0599,0.0527 0.0727,0.0451 0.15552,0.10779 0.18966,0.13178 0.11102,0.0968 0.22461,0.16553 0.34933,0.25683 0.39095,0.3455 -0.17476,-0.15256 0.1633,0.14883 0.0125,0.0104 0.0244,0.0198 0.0336,0.0253 0.0853,0.0688 0.14014,0.11416 0.17363,0.14262 0.0117,0.008 0.0256,0.0173 0.0419,0.0284 0.18599,0.10981 0.36406,0.23247 0.5426,0.35398 0.18442,0.15552 0.34015,0.32869 0.50436,0.50229 0.10802,0.1142 0.19728,0.22761 0.26924,0.33849 0.22834,-0.0128 0.5224,0.072 0.92087,0.22944 0.12462,0.0493 0.19556,0.23059 0.23875,0.41909 0.15541,0.1302 0.30351,0.26969 0.44493,0.416 0.0103,-5.3e-4 0.0207,-10e-4 0.031,-0.002 0.19207,-0.007 0.38662,0.0347 0.58756,0.12713 0.25658,0.12896 0.43323,0.35269 0.55242,0.60719 0.0354,-0.0227 0.0689,-0.0342 0.10283,-0.0336 v 5.2e-4 c 0.12397,0.002 0.25533,0.16784 0.52194,0.55346 0.0705,-0.0234 0.13962,-0.0373 0.20567,-0.0398 0.21283,-0.008 0.4199,0.0706 0.62993,0.10593 0.15531,0.20426 0.36145,0.37787 0.46561,0.61237 0.14678,0.3304 -0.0686,0.70893 -0.24391,0.99787 0.007,0.003 0.014,0.006 0.0212,0.009 0.0931,0.0795 0.20076,0.14414 0.27906,0.23823 0.25737,0.30943 0.30224,0.73087 0.20153,1.10691 -0.094,0.28931 -0.23295,0.55982 -0.46767,0.76171 -0.18968,0.17671 -0.38011,0.35641 -0.60358,0.49041 -0.29981,0.14668 -0.61008,0.22952 -0.94464,0.16382 -0.15121,-0.0262 -0.29694,-0.0684 -0.43254,-0.13488 -0.31504,0.40864 -0.63124,0.81656 -0.95808,1.21595 -0.22385,0.28274 -0.44326,0.57776 -0.68729,0.84387 -0.0386,0.042 -0.0721,0.11378 -0.11007,0.16744 5.3e-4,0.01 10e-4,0.02 0.002,0.03 h -5.2e-4 c 0.1019,1.28552 -0.83926,1.63843 -1.39889,1.05575 -0.0945,0.048 -0.19054,0.0936 -0.28784,0.13642 -0.39918,0.17077 -0.7885,0.40695 -1.23507,0.17105 -0.19929,-0.16333 -0.28245,-0.19535 -0.39429,-0.34623 0.0219,0.011 0.0342,0.0164 0.0382,0.0165 h 5.3e-4 5.3e-4 v -5.2e-4 h 5.3e-4 v -5.3e-4 h -5.3e-4 v -5.3e-4 -5.3e-4 l -5.3e-4,-5.3e-4 c -0.006,-0.007 -0.0302,-0.0261 -0.0641,-0.0517 -0.35053,0.28045 -0.71407,0.54412 -1.10071,0.77359 -0.32986,-0.0151 -0.74007,0.17091 -0.9896,-0.0455 -0.21484,-0.18621 -0.33411,-0.3673 -0.38551,-0.54209 -0.28567,-0.19805 -0.42952,-0.67336 -0.23564,-1.38286 0.0114,-0.0416 0.024,-0.0825 0.0377,-0.12299 -0.33879,-0.14694 -0.61908,-0.57124 -0.61908,-1.27279 v -0.86558 -1.03508 -1.12138 -1.37201 c 2.7e-4,-0.34663 -0.0114,-0.69186 0.0258,-1.03663 0.0441,-0.26715 0.12922,-0.52407 0.19482,-0.786 0.12533,-0.45959 0.25853,-0.91713 0.39843,-1.37252 0.0989,-0.36807 0.23151,-0.72588 0.36742,-1.08159 0.14878,-0.31203 0.33773,-0.56917 0.61753,-0.70176 0.0486,-0.38425 0.33898,-0.64166 0.72451,-0.64441 z m 4.18889,6.78201 v 5.3e-4 c -0.11884,0.13532 -0.23669,0.27178 -0.36587,0.39739 -0.047,0.0503 -0.079,0.0868 -0.10025,0.11059 -7.9e-4,0.004 -10e-4,0.009 -0.002,0.0134 0.0165,-0.0169 0.0331,-0.0339 0.0496,-0.0507 0.14831,-0.15536 0.29667,-0.31073 0.44493,-0.46612 -0.009,-0.001 -0.0174,-0.003 -0.0264,-0.005 z m 2.03088,2.42053 c -0.002,1.2e-4 -0.006,5.3e-4 -0.0119,0.001 -0.002,7.9e-4 -0.004,0.002 -0.006,0.003 0.0101,-0.002 0.0156,-0.003 0.0181,-0.004 z m -6.03942,3.73207 c -0.0174,0.0248 -0.035,0.05 -0.0522,0.0749 l -5.3e-4,5.3e-4 v 5.3e-4 l -5.3e-4,5.3e-4 h -5.3e-4 v 5.3e-4 h -5.3e-4 v 5.3e-4 h -5.2e-4 v 5.3e-4 5.3e-4 l -5.3e-4,5.2e-4 v 5.3e-4 5.3e-4 h -5.3e-4 v 5.3e-4 5.3e-4 h 5.3e-4 5.3e-4 c 0.009,-0.005 0.0586,-0.0564 0.0548,-0.0811 z" /></clipPath><clipPath
       clipPathUnits="userSpaceOnUse"
       id="clipPath42"><path
         id="path43"
         style="fill:#ff0000;fill-opacity:1;fill-rule:nonzero;stroke:none;stroke-width:0.116093"
         d="m 7.2561532,10.56502 c 0.00375,0.0051 0.00743,0.01019 0.011118,0.01531 0.1146594,0.02022 0.1696461,0.07266 0.2033549,0.152666 0.0034,4.35e-4 0.00671,9.79e-4 0.010152,0.0015 0.00111,2.18e-4 0.00224,4.35e-4 0.00339,6.53e-4 0.027508,-0.05706 0.055753,-0.11387 0.085113,-0.170101 z m -1.4720857,5.233159 v 0.505838 h 0.1189664 c 0.00655,-0.075 0.013277,-0.14998 0.02007,-0.224959 -0.00364,-0.02732 -0.00723,-0.05456 -0.010882,-0.08186 -0.024278,-0.01704 -0.047294,-0.03545 -0.06843,-0.05571 -0.019421,-0.01862 -0.033682,-0.07179 -0.044007,-0.132892 -0.00535,-0.0034 -0.010548,-0.0068 -0.015718,-0.01042 z" /></clipPath><clipPath
       clipPathUnits="userSpaceOnUse"
       id="clipPath45"><path
         id="path46"
         style="fill:#ff0000;fill-opacity:1;fill-rule:nonzero;stroke:none;stroke-width:0.113474"
         d="m 7.6959889,8.6520213 v 1.6871897 c 0.030983,-0.05119 0.063364,-0.101819 0.097446,-0.151602 0.042241,-0.04231 0.074226,-0.09468 0.1267041,-0.126938 0.2724156,-0.1674302 0.4958092,-0.1530307 0.6847808,0.006 0.1829424,-0.01033 0.3662204,-0.02359 0.5471957,-0.003 0.040222,0.0046 0.027848,0.06707 0.037721,0.101636 0.059759,0.209337 0.04961,0.431482 0.057791,0.644896 -0.00889,0.594963 -0.064429,1.188567 -0.1595897,1.777555 0.00217,0.05297 0.00431,0.105862 0.00652,0.158833 0.00295,0.06949 0.00931,0.165898 7.428e-4,0.175841 l -2.476e-4,2.18e-4 -2.476e-4,2.18e-4 h -2.476e-4 l -2.476e-4,2.18e-4 H 9.094067 9.0938194 c -0.021881,0.0024 -0.043836,0.0046 -0.06577,0.0064 -0.1757062,0.901844 -0.402726,1.799778 -0.8097925,2.645709 -0.068075,0.133253 -0.1513877,0.304038 -0.2517145,0.478833 0.010436,0.210379 0.011316,0.420853 -0.033127,0.626399 -0.079285,0.0097 -0.1583566,0.02408 -0.2374489,0.03848 v 6.281194 H 18.217943 V 8.6520213 Z m 0.4787665,2.4698677 c -0.093909,0.192726 -0.1864658,0.385956 -0.2713013,0.581958 0.022262,0.238602 0.029236,0.478853 0.040139,0.717188 9.904e-4,0.02363 0.00176,0.04717 0.00266,0.07081 0.055788,-0.233085 0.1092307,-0.466546 0.1595884,-0.700604 0.044943,-0.229103 0.068316,-0.342104 0.093093,-0.47926 -0.00724,-0.06347 -0.015217,-0.126797 -0.02418,-0.190087 z m 3.0184036,1.67996 c 0.143571,-9.8e-4 0.31645,0.06896 0.481426,0.238992 0.02327,0.02399 0.04708,0.04758 0.06964,0.07208 -0.01177,-0.0075 -0.01794,-0.0116 -0.01958,-0.01254 0.0015,0.0013 0.01884,0.01362 0.04667,0.03423 0.03282,0.01837 0.0702,0.0438 0.0856,0.05358 0.0501,0.03947 0.101375,0.06761 0.157653,0.104825 0.176421,0.140829 -0.07904,-0.06225 0.07351,0.0606 0.0056,0.0042 0.01107,0.008 0.01523,0.0102 0.03848,0.02805 0.06323,0.04666 0.07834,0.05826 0.0053,0.0032 0.0115,0.0069 0.01886,0.01148 0.08393,0.04476 0.164377,0.09484 0.244945,0.144373 0.08322,0.06339 0.153433,0.133997 0.227534,0.204758 0.04869,0.0465 0.08892,0.09263 0.121385,0.137782 0.103058,-0.0053 0.235789,0.02935 0.415656,0.09356 0.05624,0.02008 0.08836,0.0939 0.107843,0.170739 0.07019,0.05311 0.137078,0.109987 0.200937,0.169675 0.0046,-2.18e-4 0.0091,-4.36e-4 0.01378,-6.53e-4 0.08667,-0.0028 0.174334,0.01422 0.265015,0.05188 0.115786,0.05257 0.195514,0.14375 0.249296,0.247498 0.01421,-0.0083 0.02778,-0.01283 0.04135,-0.01361 0.0017,-10e-5 0.0034,-2.9e-5 0.0051,0 0.05594,9.8e-4 0.115205,0.06841 0.235513,0.225597 0.03182,-0.0095 0.06305,-0.01536 0.09285,-0.01637 0.09604,-0.0033 0.189581,0.029 0.284359,0.04337 0.07009,0.08326 0.163124,0.153826 0.210124,0.249411 0.06623,0.134676 -0.03116,0.288981 -0.11026,0.406755 0.0032,0.0013 0.0064,0.0025 0.0097,0.0038 0.04201,0.03239 0.09065,0.05884 0.125978,0.09717 0.116139,0.126123 0.136379,0.297916 0.09092,0.451193 -0.04243,0.11793 -0.105174,0.228138 -0.211093,0.310433 -0.08559,0.07202 -0.171426,0.145245 -0.272268,0.199869 -0.135292,0.05979 -0.275323,0.09352 -0.426295,0.06677 -0.06823,-0.01069 -0.13395,-0.02778 -0.195134,-0.05486 -0.142171,0.166568 -0.284858,0.332834 -0.43234,0.495631 -0.101019,0.115254 -0.200112,0.235564 -0.310231,0.34403 -0.0174,0.01714 -0.03244,0.04637 -0.04957,0.06825 2.47e-4,0.004 3.71e-4,0.0081 7.43e-4,0.01212 h -2.48e-4 c 0.046,0.524 -0.378565,0.667874 -0.631101,0.430355 -0.04265,0.01958 -0.08593,0.03803 -0.129847,0.0555 -0.180132,0.06961 -0.355839,0.165903 -0.557352,0.06974 -0.08993,-0.06658 -0.127498,-0.07947 -0.177966,-0.140971 0.0093,0.0042 0.01503,0.0063 0.01717,0.0066 h 2.48e-4 2.47e-4 v -2.18e-4 h 2.48e-4 v -2.18e-4 h -2.48e-4 v -2.17e-4 -2.18e-4 l -2.47e-4,-2.18e-4 c -0.0025,-0.0029 -0.01365,-0.01056 -0.02902,-0.02105 -0.158222,0.114354 -0.32214,0.221765 -0.49666,0.315326 -0.14885,-0.0062 -0.334006,0.06964 -0.446606,-0.0185 -0.09695,-0.0759 -0.150898,-0.149463 -0.174097,-0.220705 -0.12891,-0.08073 -0.193636,-0.274682 -0.10615,-0.563886 0.0051,-0.01701 0.01071,-0.03383 0.01693,-0.05039 -0.152831,-0.05993 -0.279038,-0.232916 -0.279038,-0.518808 V 16.53212 16.110057 15.653122 15.093703 c 1.19e-4,-0.14129 -0.0051,-0.281953 0.0116,-0.422489 0.01991,-0.108891 0.05817,-0.213662 0.08777,-0.320428 0.05656,-0.187336 0.116769,-0.373797 0.179901,-0.559419 0.04464,-0.150033 0.104544,-0.295781 0.165876,-0.440775 0.06712,-0.127151 0.152353,-0.232134 0.278555,-0.286195 0.02195,-0.156615 0.152949,-0.261474 0.326915,-0.262594 z m 1.890159,2.764993 c -0.05361,0.05514 -0.10664,0.110416 -0.164908,0.161596 -0.0212,0.02052 -0.03563,0.03536 -0.04522,0.04508 -3.72e-4,0.0019 -6.19e-4,0.0038 -9.91e-4,0.0057 0.0075,-0.0069 0.01479,-0.0137 0.02224,-0.02063 0.06695,-0.06336 0.134006,-0.126727 0.200937,-0.190086 -0.0039,-5.44e-4 -0.0081,-0.0011 -0.01208,-0.0017 z m 0.916667,0.98616 c -0.0011,4.9e-5 -0.003,2.18e-4 -0.0056,4.36e-4 -8.67e-4,3.26e-4 -0.0018,6.53e-4 -0.0027,0.0011 0.0046,-6.53e-4 0.0071,-0.0012 0.0082,-0.0015 z m -2.725098,1.520703 c -0.0079,0.01021 -0.01607,0.0208 -0.02394,0.03104 -4.96e-4,6.54e-4 -7.43e-4,0.0011 -9.91e-4,0.0015 v 2.17e-4 h -2.47e-4 v 2.18e-4 2.18e-4 h 2.47e-4 2.48e-4 c 0.0042,-0.002 0.02671,-0.02307 0.02466,-0.03317 z" /></clipPath><clipPath
       clipPathUnits="userSpaceOnUse"
       id="clipPath48"><path
         id="path49"
         style="fill:#ff0000;fill-opacity:1;fill-rule:nonzero;stroke:none;stroke-width:0.116093"
         d="m 7.2561532,10.56502 c 0.00375,0.0051 0.00743,0.01019 0.011118,0.01531 0.1146594,0.02022 0.1696461,0.07266 0.2033549,0.152666 0.0034,4.35e-4 0.00671,9.79e-4 0.010152,0.0015 0.00111,2.18e-4 0.00224,4.35e-4 0.00339,6.53e-4 0.027508,-0.05706 0.055753,-0.11387 0.085113,-0.170101 z m -1.4720857,5.233159 v 0.505838 h 0.1189664 c 0.00655,-0.075 0.013277,-0.14998 0.02007,-0.224959 -0.00364,-0.02732 -0.00723,-0.05456 -0.010882,-0.08186 -0.024278,-0.01704 -0.047294,-0.03545 -0.06843,-0.05571 -0.019421,-0.01862 -0.033682,-0.07179 -0.044007,-0.132892 -0.00536,-0.0034 -0.010536,-0.0068 -0.015718,-0.01042 z" /></clipPath><clipPath
       clipPathUnits="userSpaceOnUse"
       id="clipPath51"><path
         id="path52"
         style="fill:#ff0000;fill-opacity:1;fill-rule:nonzero;stroke:none;stroke-width:0.113474"
         d="M 0.49998789,0.4999289 V 15.36995 H 5.5115579 c -0.08227,-0.2298 -0.1317454,-0.467832 -0.1680516,-0.706558 -0.076716,-0.515473 -0.1115247,-1.033779 -0.108811,-1.553873 -0.010424,-0.571505 -0.023993,-1.143065 -0.04304,-1.714406 -0.0027,-0.16766 -0.00496,-0.334786 0.00799,-0.502224 0.00385,-0.04992 0.01767,-0.220224 0.056097,-0.252812 0.1082043,-0.0918 0.2519436,-0.144304 0.3779358,-0.216453 0.079503,0.03156 0.1640379,0.05513 0.2420432,0.08909 0.020598,-0.08231 0.040906,-0.159576 0.075684,-0.283431 0.036387,-0.129588 0.054382,-0.209667 0.080277,-0.2549381 -0.00152,-0.01722 -0.0037,-0.035324 0.010152,-0.032745 0.00469,8.709e-4 0.00933,0.00169 0.014025,0.00255 0.013898,-0.011578 0.030636,-0.017478 0.052228,-0.018924 0.093568,-0.00626 0.2787159,0.071513 0.7249199,0.1382081 h 2.476e-4 l 2.476e-4,2.18e-4 h 2.476e-4 2.476e-4 v 2.18e-4 h 2.476e-4 l 2.476e-4,2.17e-4 2.477e-4,2.18e-4 v 2.18e-4 2.17e-4 2.18e-4 l 2.476e-4,2.18e-4 v 2.18e-4 2.17e-4 2.18e-4 c -6.191e-4,0.003 -0.00454,0.0083 -0.00532,0.01148 -0.00303,0.02249 -0.00579,0.0449 -0.0087,0.0674 0.00597,0.0076 0.00271,0.01865 -0.00411,0.03126 -0.00472,0.03716 -0.00931,0.07443 -0.013783,0.111628 0.00412,-6.53e-4 0.00823,-0.0014 0.012331,-0.0021 0.076172,0.02659 0.1575519,0.04369 0.2285017,0.07973 0.083352,0.04236 0.1586735,0.125331 0.2234245,0.215178 0.114621,0.02022 0.1696511,0.07268 0.203355,0.152665 0.0034,4.35e-4 0.00671,9.8e-4 0.010152,0.0015 0.00111,2.18e-4 0.00224,4.36e-4 0.00339,6.54e-4 0.090662,-0.188046 0.1895262,-0.372611 0.3092627,-0.547512 0.042241,-0.04231 0.074226,-0.09468 0.1267041,-0.126938 0.2724155,-0.1674303 0.4958091,-0.1528185 0.6847808,0.0062 0.1829424,-0.01033 0.3662204,-0.02359 0.5471956,-0.003 0.040222,0.0046 0.027848,0.06707 0.037721,0.101635 0.059759,0.209337 0.04961,0.431482 0.057791,0.644896 -0.00889,0.594963 -0.064429,1.188567 -0.1595897,1.777556 0.00217,0.05297 0.00431,0.105861 0.00652,0.158832 0.00295,0.06949 0.00931,0.165899 7.428e-4,0.175842 l -2.476e-4,2.18e-4 -2.476e-4,2.18e-4 h -2.476e-4 l -2.476e-4,2.18e-4 H 9.0941196 9.093872 c -0.021881,0.0024 -0.043836,0.0046 -0.06577,0.0064 -0.161568,0.829278 -0.3665708,1.655249 -0.7150058,2.440525 h 1.8292248 v -0.275989 c 1.19e-4,-0.14129 -0.0049,-0.28217 0.01185,-0.422701 0.01991,-0.108893 0.05817,-0.21345 0.08777,-0.320216 0.05656,-0.187334 0.116769,-0.37401 0.179901,-0.559632 0.04464,-0.15003 0.104545,-0.295783 0.165876,-0.440774 0.06712,-0.127158 0.152341,-0.231711 0.278555,-0.28577 0.02193,-0.156637 0.152936,-0.261898 0.326915,-0.263018 0.143571,-9.8e-4 0.31645,0.06896 0.481426,0.238991 0.02327,0.02399 0.04708,0.04758 0.06964,0.07208 -0.01177,-0.0075 -0.01794,-0.01159 -0.01958,-0.01255 0.0015,0.0013 0.01884,0.01363 0.04667,0.03423 0.03282,0.01837 0.0702,0.0438 0.0856,0.05358 0.0501,0.03947 0.101373,0.06761 0.157653,0.104824 0.17642,0.140828 -0.07904,-0.06225 0.07351,0.0606 0.0056,0.0042 0.01107,0.008 0.01523,0.0102 0.03848,0.02805 0.06323,0.04666 0.07834,0.05826 0.0053,0.0032 0.0115,0.0069 0.01886,0.01148 0.08393,0.04476 0.164377,0.09484 0.244945,0.144375 0.08322,0.06339 0.153433,0.133998 0.227534,0.204759 0.04869,0.0465 0.08892,0.09263 0.121385,0.137782 0.103057,-0.0053 0.235784,0.02934 0.415656,0.09355 0.05624,0.02008 0.08836,0.0939 0.107843,0.170739 0.07019,0.05311 0.137076,0.109987 0.200937,0.169676 0.0046,-2.18e-4 0.0091,-4.36e-4 0.01378,-6.54e-4 0.08667,-0.0028 0.174338,0.01422 0.265015,0.05188 0.115799,0.05257 0.19551,0.143735 0.249296,0.247496 0.01599,-0.0093 0.03112,-0.01387 0.04643,-0.01361 0.05594,9.8e-4 0.115205,0.06841 0.235514,0.225596 0.03182,-0.0095 0.06305,-0.01536 0.09285,-0.01637 0.09604,-0.0033 0.18958,0.02901 0.284358,0.04338 0.07008,0.08326 0.163124,0.153826 0.210125,0.249411 0.03607,0.07334 0.02352,0.152463 -0.008,0.22836 h 8.591918 V 0.4999289 Z M 8.1747554,11.121889 c -0.093903,0.192715 -0.1864696,0.385967 -0.2713013,0.581958 0.022266,0.238612 0.029233,0.478843 0.040139,0.717188 9.904e-4,0.0236 0.00202,0.0472 0.0029,0.07081 0.055783,-0.233066 0.108993,-0.466566 0.159347,-0.700604 0.044943,-0.229103 0.068316,-0.342104 0.093093,-0.47926 -0.00724,-0.06347 -0.015217,-0.126797 -0.02418,-0.190087 z" /></clipPath><clipPath
       clipPathUnits="userSpaceOnUse"
       id="clipPath54"><path
         id="path55"
         style="fill:#ff0000;fill-opacity:1;fill-rule:nonzero;stroke:none;stroke-width:0.113474"
         d="m 7.6959889,8.6520213 v 1.6871897 c 0.030983,-0.05119 0.063364,-0.101819 0.097446,-0.151602 0.042241,-0.04231 0.074226,-0.09468 0.1267041,-0.126938 0.2724156,-0.1674302 0.4958092,-0.1530307 0.6847808,0.006 0.1829424,-0.01033 0.3662204,-0.02359 0.5471957,-0.003 0.040222,0.0046 0.027848,0.06707 0.037721,0.101636 0.059759,0.209337 0.04961,0.431482 0.057791,0.644896 -0.00889,0.594963 -0.064429,1.188567 -0.1595897,1.777555 0.00217,0.05297 0.00431,0.105862 0.00652,0.158833 0.00295,0.06949 0.00931,0.165898 7.428e-4,0.175841 l -2.476e-4,2.18e-4 -2.476e-4,2.18e-4 h -2.476e-4 l -2.476e-4,2.18e-4 H 9.094067 9.0938194 c -0.021881,0.0024 -0.043836,0.0046 -0.06577,0.0064 -0.1757062,0.901844 -0.402726,1.799778 -0.8097925,2.645709 -0.068075,0.133253 -0.1513877,0.304038 -0.2517145,0.478833 0.010436,0.210379 0.011316,0.420853 -0.033127,0.626399 -0.079285,0.0097 -0.1583566,0.02408 -0.2374489,0.03848 v 6.281194 H 18.217943 V 8.6520213 Z m 0.4787665,2.4698677 c -0.093909,0.192726 -0.1864658,0.385956 -0.2713013,0.581958 0.022262,0.238602 0.029236,0.478853 0.040139,0.717188 9.904e-4,0.02363 0.00176,0.04717 0.00266,0.07081 0.055788,-0.233085 0.1092307,-0.466546 0.1595884,-0.700604 0.044943,-0.229103 0.068316,-0.342104 0.093093,-0.47926 -0.00724,-0.06347 -0.015217,-0.126797 -0.02418,-0.190087 z m 3.0184036,1.67996 c 0.143571,-9.8e-4 0.31645,0.06896 0.481426,0.238992 0.02327,0.02399 0.04708,0.04758 0.06964,0.07208 -0.01177,-0.0075 -0.01794,-0.0116 -0.01958,-0.01254 0.0015,0.0013 0.01884,0.01362 0.04667,0.03423 0.03282,0.01837 0.0702,0.0438 0.0856,0.05358 0.0501,0.03947 0.101375,0.06761 0.157653,0.104825 0.176421,0.140829 -0.07904,-0.06225 0.07351,0.0606 0.0056,0.0042 0.01107,0.008 0.01523,0.0102 0.03848,0.02805 0.06323,0.04666 0.07834,0.05826 0.0053,0.0032 0.0115,0.0069 0.01886,0.01148 0.08393,0.04476 0.164377,0.09484 0.244945,0.144373 0.08322,0.06339 0.153433,0.133997 0.227534,0.204758 0.04869,0.0465 0.08892,0.09263 0.121385,0.137782 0.103058,-0.0053 0.235789,0.02935 0.415656,0.09356 0.05624,0.02008 0.08836,0.0939 0.107843,0.170739 0.07019,0.05311 0.137078,0.109987 0.200937,0.169675 0.0046,-2.18e-4 0.0091,-4.36e-4 0.01378,-6.53e-4 0.08667,-0.0028 0.174334,0.01422 0.265015,0.05188 0.115786,0.05257 0.195514,0.14375 0.249296,0.247498 0.01421,-0.0083 0.02778,-0.01283 0.04135,-0.01361 0.0017,-10e-5 0.0034,-2.9e-5 0.0051,0 0.05594,9.8e-4 0.115205,0.06841 0.235513,0.225597 0.03182,-0.0095 0.06305,-0.01536 0.09285,-0.01637 0.09604,-0.0033 0.189581,0.029 0.284359,0.04337 0.07009,0.08326 0.163124,0.153826 0.210124,0.249411 0.06623,0.134676 -0.03116,0.288981 -0.11026,0.406755 0.0032,0.0013 0.0064,0.0025 0.0097,0.0038 0.04201,0.03239 0.09065,0.05884 0.125978,0.09717 0.116139,0.126123 0.136379,0.297916 0.09092,0.451193 -0.04243,0.11793 -0.105174,0.228138 -0.211093,0.310433 -0.08559,0.07202 -0.171426,0.145245 -0.272268,0.199869 -0.135292,0.05979 -0.275323,0.09352 -0.426295,0.06677 -0.06823,-0.01069 -0.13395,-0.02778 -0.195134,-0.05486 -0.142171,0.166568 -0.284858,0.332834 -0.43234,0.495631 -0.101019,0.115254 -0.200112,0.235564 -0.310231,0.34403 -0.0174,0.01714 -0.03244,0.04637 -0.04957,0.06825 2.47e-4,0.004 3.71e-4,0.0081 7.43e-4,0.01212 h -2.48e-4 c 0.046,0.524 -0.378565,0.667874 -0.631101,0.430355 -0.04265,0.01958 -0.08593,0.03803 -0.129847,0.0555 -0.180132,0.06961 -0.355839,0.165903 -0.557352,0.06974 -0.08993,-0.06658 -0.127498,-0.07947 -0.177966,-0.140971 0.0093,0.0042 0.01503,0.0063 0.01717,0.0066 h 2.48e-4 2.47e-4 v -2.18e-4 h 2.48e-4 v -2.18e-4 h -2.48e-4 v -2.17e-4 -2.18e-4 l -2.47e-4,-2.18e-4 c -0.0025,-0.0029 -0.01365,-0.01056 -0.02902,-0.02105 -0.158222,0.114354 -0.32214,0.221765 -0.49666,0.315326 -0.14885,-0.0062 -0.334006,0.06964 -0.446606,-0.0185 -0.09695,-0.0759 -0.150898,-0.149463 -0.174097,-0.220705 -0.12891,-0.08073 -0.193636,-0.274682 -0.10615,-0.563886 0.0051,-0.01701 0.01071,-0.03383 0.01693,-0.05039 -0.152831,-0.05993 -0.279038,-0.232916 -0.279038,-0.518808 V 16.53212 16.110057 15.653122 15.093703 c 1.19e-4,-0.14129 -0.0051,-0.281953 0.0116,-0.422489 0.01991,-0.108891 0.05817,-0.213662 0.08777,-0.320428 0.05656,-0.187336 0.116769,-0.373797 0.179901,-0.559419 0.04464,-0.150033 0.104544,-0.295781 0.165876,-0.440775 0.06712,-0.127151 0.152353,-0.232134 0.278555,-0.286195 0.02195,-0.156615 0.152949,-0.261474 0.326915,-0.262594 z m 1.890159,2.764993 c -0.05361,0.05514 -0.10664,0.110416 -0.164908,0.161596 -0.0212,0.02052 -0.03563,0.03536 -0.04522,0.04508 -3.72e-4,0.0019 -6.19e-4,0.0038 -9.91e-4,0.0057 0.0075,-0.0069 0.01479,-0.0137 0.02224,-0.02063 0.06695,-0.06336 0.134006,-0.126727 0.200937,-0.190086 -0.0039,-5.44e-4 -0.0081,-0.0011 -0.01208,-0.0017 z m 0.916667,0.98616 c -0.0011,4.9e-5 -0.003,2.18e-4 -0.0056,4.36e-4 -8.67e-4,3.26e-4 -0.0018,6.53e-4 -0.0027,0.0011 0.0046,-6.53e-4 0.0071,-0.0012 0.0082,-0.0015 z m -2.725098,1.520703 c -0.0079,0.01021 -0.01607,0.0208 -0.02394,0.03104 -4.96e-4,6.54e-4 -7.43e-4,0.0011 -9.91e-4,0.0015 v 2.17e-4 h -2.47e-4 v 2.18e-4 2.18e-4 h 2.47e-4 2.48e-4 c 0.0042,-0.002 0.02671,-0.02307 0.02466,-0.03317 z" /></clipPath><clipPath
       id="clipPath11"><path
         fill="#ffffff"
         d="M 0,0 H 24 V 24 H 0 Z"
         id="path11" /></clipPath></defs><g
     inkscape:label="图层 1"
     inkscape:groupmode="layer"
     id="layer1"><g
       inkscape:label="图层 1"
       id="layer1-8"
       transform="matrix(7.1259867,0,0,6.9865819,-422.13169,-669.02264)"><g
         fill="none"
         id="g10"
         transform="matrix(2.1371462,0,0,2.4303875,69.643415,106.50812)"
         style="stroke-width:1.00014;stroke-dasharray:none"><g
           clip-path="url(#SVGXv8lpc2Y)"
           id="g9"
           style="stroke-width:1.00014;stroke-dasharray:none"><path
             fill="#ffffff"
             d="m 5.784,15.348 a 0.957,0.957 0 0 0 0.957,0.956 H 7.697 V 10.565 H 6.741 a 0.956,0.956 0 0 0 -0.957,0.957 z"
             id="path1"
             style="stroke-width:1.00014;stroke-dasharray:none"
             clip-path="url(#clipPath42)" /><path
             id="path2"
             d="M 8.6519357,8.6520261 A 0.957,0.957 0 0 0 7.696084,9.6089671 V 22.043045 a 0.957,0.957 0 0 0 0.9568591,0.956941 h 3.0559449 v -0.428279 -1.87377 -1.066451 -0.44271 -0.283751 c 0,-0.79078 0.379206,-1.186148 0.758395,-1.186148 0.379186,0 0.758395,0.395368 0.758395,1.186148 v 0.283751 0.44271 1.066451 1.87377 0.428279 h 4.036378 a 0.957,0.957 0 0 0 0.955852,-0.956941 V 9.6100282 A 0.956,0.956 0 0 0 17.261049,8.6530873 l 0.001,-0.00106 z M 12.91015,15.922358 h 0.552879 0.539782 c 0.515795,0 0.515795,0.548824 0,0.548824 H 13.463029 12.91015 c -0.06955,-0.0062 -0.134634,0.0012 -0.202091,0.01422 -0.05457,0.01741 -0.109624,0.0332 -0.164413,0.04987 -0.495535,0.150772 -0.640206,-0.376417 -0.144667,-0.527177 0.07153,-0.02177 0.143039,-0.044 0.215389,-0.06261 0.09811,-0.01885 0.195851,-0.02897 0.295782,-0.02313 z"
             style="stroke-width:1.00014;stroke-dasharray:none"
             clip-path="url(#clipPath45)" /><path
             id="path3"
             d="M 6.7410382,10.565059 A 0.956,0.956 0 0 0 5.7839776,11.522 v 3.826066 a 0.957,0.957 0 0 0 0.9570606,0.95588 h 0.9560532 v -5.738887 z"
             style="stroke-width:1.00014;stroke-dasharray:none"
             clip-path="url(#clipPath48)" /><path
             id="path4"
             d="M 10.085915,10.565059 A 0.48,0.48 0 0 0 9.6079889,11.04406 v 7.65192 a 0.48,0.48 0 0 0 0.4789331,0.47794 h 1.621966 v -0.268895 c 0,-0.79078 0.379206,-1.186148 0.758395,-1.186148 0.379186,0 0.758395,0.395368 0.758395,1.186148 v 0.268895 h 2.600384 a 0.48,0.48 0 0 0 0.477926,-0.47794 v -7.65192 a 0.48,0.48 0 0 0 -0.477926,-0.479001 z m 2.824235,5.357299 h 0.552879 0.539782 c 0.515795,0 0.515795,0.548824 0,0.548824 H 13.463029 12.91015 c -0.06955,-0.0062 -0.134634,0.0012 -0.202091,0.01422 -0.05457,0.01741 -0.109624,0.0332 -0.164413,0.04987 -0.495535,0.150772 -0.640206,-0.376417 -0.144667,-0.527177 0.07153,-0.02177 0.143039,-0.044 0.215389,-0.06261 0.09811,-0.01885 0.195851,-0.02897 0.295782,-0.02313 z"
             style="stroke-width:1.00014;stroke-dasharray:none"
             clip-path="url(#clipPath124)" /><path
             fill="#808080"
             d="m 3.87,16.305 a 0.9565,0.9565 0 1 1 -1.913,0 v -2.87 a 0.9565,0.9565 0 1 1 1.913,0 z m 18.175,0 a 0.9565,0.9565 0 1 1 -1.913,0 v -2.87 a 0.9565,0.9565 0 1 1 1.913,0 z"
             id="path5"
             style="stroke-width:1.00014;stroke-dasharray:none" /><path
             stroke="#191919"
             stroke-linecap="round"
             stroke-linejoin="round"
             d="M 22.044,14.87 H 23 V 12 A 11,11 0 1 0 1,12 v 2.87 h 0.957"
             stroke-width="1"
             id="path6"
             style="stroke-width:1.00014;stroke-dasharray:none"
             clip-path="url(#clipPath51)"
             transform="translate(-0.05897224)" /><path
             id="path7"
             d="M 8.6519357,8.6520261 A 0.957,0.957 0 0 0 7.696084,9.6089671 V 22.043045 a 0.957,0.957 0 0 0 0.9568591,0.956941 h 3.0559449 v -0.428279 -1.87377 -1.066451 -0.44271 -0.283751 c 0,-0.79078 0.379206,-1.186148 0.758395,-1.186148 0.379186,0 0.758395,0.395368 0.758395,1.186148 v 0.283751 0.44271 1.066451 1.87377 0.428279 h 4.036378 a 0.957,0.957 0 0 0 0.955852,-0.956941 V 9.6100282 A 0.956,0.956 0 0 0 17.261049,8.6530873 l 0.001,-0.00106 z M 12.91015,15.922358 h 0.552879 0.539782 c 0.515795,0 0.515795,0.548824 0,0.548824 H 13.463029 12.91015 c -0.06955,-0.0062 -0.134634,0.0012 -0.202091,0.01422 -0.05457,0.01741 -0.109624,0.0332 -0.164413,0.04987 -0.495535,0.150772 -0.640206,-0.376417 -0.144667,-0.527177 0.07153,-0.02177 0.143039,-0.044 0.215389,-0.06261 0.09811,-0.01885 0.195851,-0.02897 0.295782,-0.02313 z"
             style="stroke-width:1.00014;stroke-dasharray:none"
             clip-path="url(#clipPath54)" /><path
             id="path8"
             d="M 10.085915,10.565059 A 0.48,0.48 0 0 0 9.6079889,11.04406 v 7.65192 a 0.48,0.48 0 0 0 0.4789331,0.47794 h 1.621966 v -0.268895 c 0,-0.79078 0.379206,-1.186148 0.758395,-1.186148 0.379186,0 0.758395,0.395368 0.758395,1.186148 v 0.268895 h 2.600384 a 0.48,0.48 0 0 0 0.477926,-0.47794 v -7.65192 a 0.48,0.48 0 0 0 -0.477926,-0.479001 z m -7.237595,1.91558 a 0.9565,0.9565 0 0 0 -0.891376,0.954394 v 2.869974 a 0.95655691,0.95655691 0 0 0 1.9131138,0 V 13.435033 A 0.9565,0.9565 0 0 0 2.84832,12.480639 Z m 18.174884,0 a 0.9565,0.9565 0 0 0 -0.891175,0.954394 v 2.869974 a 0.9565,0.9565 0 0 0 1.912912,0 v -2.869974 a 0.9565,0.9565 0 0 0 -1.021737,-0.954394 z m -8.113054,3.441719 h 0.552879 0.539782 c 0.515795,0 0.515795,0.548824 0,0.548824 H 13.463029 12.91015 c -0.06955,-0.0062 -0.134634,0.0012 -0.202091,0.01422 -0.05457,0.01741 -0.109624,0.0332 -0.164413,0.04987 -0.495535,0.150772 -0.640206,-0.376417 -0.144667,-0.527177 0.07153,-0.02177 0.143039,-0.044 0.215389,-0.06261 0.09811,-0.01885 0.195851,-0.02897 0.295782,-0.02313 z"
             style="stroke-width:1.00014;stroke-dasharray:none"
             clip-path="url(#clipPath133)" /><path
             id="path9"
             d="m 13.434015,13.196063 a 0.239,0.239 0 1 0 0,0.47794 z m 0.002,0 v 0.47794 a 0.239,0.239 0 1 0 0,-0.47794 z m -0.158167,3.275119 a 0.24,0.24 0 0 0 0.157159,0.0728 v -0.0728 z m 0.158167,0 v 0.0728 a 0.24,0.24 0 0 0 0.188188,-0.0728 h -0.161189 z"
             style="stroke-width:1.00014;stroke-dasharray:none"
             clip-path="url(#clipPath60)" /></g><defs
           id="defs10"><clipPath
             id="clipPath12"><path
               fill="#ffffff"
               d="M 0,0 H 24 V 24 H 0 Z"
               id="path12" /></clipPath></defs></g><path
         fill="#dda7dd"
         d="m 115.19884,130.69211 a 6.0798668,6.6613462 0 0 1 5.76776,6.65245 v 22.20445 a 6.0798668,6.6613462 0 0 1 -6.0799,6.66135 h -12.15972 a 6.0798668,6.6613462 0 0 1 -6.079851,-6.66135 v -22.20445 a 6.0798668,6.6613462 0 0 1 6.079851,-6.66135 h 12.15972 z m -12.47186,2.21153 a 4.0532446,4.4408975 0 0 0 -4.053184,4.44092 v 22.20445 a 4.0532446,4.4408975 0 0 0 4.053184,4.44094 h 12.15972 a 4.0532446,4.4408975 0 0 0 4.0533,-4.44094 v -22.20445 a 4.0532446,4.4408975 0 0 0 -3.6398,-4.41869 l -0.41363,-0.0252 z m 2.02668,12.21693 a 2.0266222,2.2204487 0 0 1 3.06833,-1.90513 l 5.07461,3.32618 a 2.0266222,2.2204487 0 0 1 0,3.81033 l -5.07461,3.32627 a 2.0266222,2.2204487 0 0 1 -3.06833,-1.9052 z"
         id="path1-8"
         style="fill:#ff5a79;fill-opacity:1;stroke-width:2.12132"
         clip-path="url(#clipPath136)"
         transform="translate(-13.643767,-9.9609644)" /><path
         fill="#eb5757"
         fill-rule="evenodd"
         d="m 91.820809,142.13011 a 2.942446,3.1263418 88.592079 0 1 -0.40938,-3.80549 2.9434268,3.1273839 88.592079 0 1 4.64177,-3.92962 l 3.0149,2.70098 a 1.471223,1.5631709 88.592079 0 1 0.0511,2.07968 l -2.87804,2.84581 a 2.942446,3.1263418 88.592079 0 1 -4.41983,0.10863"
         clip-rule="evenodd"
         id="path1-6"
         style="stroke-width:0.505499" /></g></g></svg>
